<?xml version="1.0" encoding="utf-8"?>
<svg version="1.2" xmlns:xlink="http://www.w3.org/1999/xlink" xmlns:svgjs="http://svgjs.dev/svgjs" width="128" height="128" viewBox="0 0 128 128" baseProfile="tiny-ps" xmlns="http://www.w3.org/2000/svg">
  <title>debben-eu-bimi.svg</title>
  <g transform="matrix(0.8046875,0,0,0.8046875,12.221578124999994,11.887472826771749)">
    <svg viewBox="0 0 96 95" preserveAspectRatio="xMidYMid meet" height="126" width="128">
      <g id="tight-bounds" transform="matrix(1,0,0,1,0.25950000000000273,1.3278879971070694)">
        <svg viewBox="0 0 95.481 93.2288951049934" height="93.2288951049934" width="95.481">
          <g>
            <svg viewBox="0 0 95.481 93.2288951049934" height="93.2288951049934" width="95.481">
              <g>
                <svg viewBox="0 0 95.481 93.2288951049934" height="93.2288951049934" width="95.481">
                  <g id="textblocktransform">
                    <svg viewBox="0 0 95.481 93.2288951049934" height="93.2288951049934" width="95.481">
                      <g>
                        <svg viewBox="0 0 95.481 93.2288951049934" height="93.2288951049934" width="95.481">
                          <g>
                            <svg viewBox="0 0 95.481 93.2288951049934" height="93.2288951049934" width="95.481">
                              <g>
                                <svg version="1.1" viewBox="11.017823632605122 11.461749422187646 37.96369815853941 37.06825057781236" height="93.2288951049934" width="95.481">
                                  <path d="M48.85 34.1L35.82 11.92A0.945 0.945 0 0 0 34.2 11.92L30 19.08 25.79 11.93A0.945 0.945 0 0 0 24.17 11.93L11.15 34.1C10.93 34.47 10.99 34.93 11.29 35.23L24.32 48.26C24.5 48.44 24.74 48.53 24.98 48.53S25.46 48.44 25.64 48.26L30 43.91 34.35 48.26C34.53 48.44 34.77 48.53 35.01 48.53S35.49 48.44 35.67 48.26L48.7 35.23C49.01 34.93 49.07 34.46 48.85 34.1M24.99 46.28L13.13 34.42 24.99 14.24 28.92 20.92 21.17 34.1C20.95 34.47 21.01 34.93 21.31 35.23L28.67 42.59zM30 22.77L36.85 34.42 30 41.27 23.15 34.42zM35.01 46.28L31.32 42.59 38.68 35.23C38.98 34.93 39.04 34.46 38.82 34.1L31.08 20.93 35.01 14.25 46.87 34.43z" fill="#ec8c0d"></path>
                                </svg>
                              </g>
                            </svg>
                          </g>
                        </svg>
                      </g>
                    </svg>
                  </g>
                </svg>
              </g>
            </svg>
          </g>
          <defs></defs>
        </svg>
        <rect width="95.481" height="93.2288951049934" fill="none" stroke="none"></rect>
      </g>
    </svg>
  </g>
</svg>