<?xml version="1.0" encoding="utf-8"?>
<svg width="128" height="128" version="1.2" baseProfile="tiny-ps" viewBox="0 0 128 128" xmlns="http://www.w3.org/2000/svg">
 <title>Debben.eu</title>
 <path transform="matrix(2.6842 0 0 2.6842 -16.805 -17.461)" d="m48.85 34.1-13.03-22.18a0.945 0.945 0 0 0-1.62 0l-4.2 7.16-4.21-7.15a0.945 0.945 0 0 0-1.62 0l-13.02 22.17c-0.22 0.37-0.16 0.83 0.14 1.13l13.03 13.03c0.18 0.18 0.42 0.27 0.66 0.27s0.48-0.09 0.66-0.27l4.36-4.35 4.35 4.35c0.18 0.18 0.42 0.27 0.66 0.27s0.48-0.09 0.66-0.27l13.03-13.03c0.31-0.3 0.37-0.77 0.15-1.13m-23.86 12.18-11.86-11.86 11.86-20.18 3.93 6.68-7.75 13.18c-0.22 0.37-0.16 0.83 0.14 1.13l7.36 7.36zm5.01-23.51 6.85 11.65-6.85 6.85-6.85-6.85zm5.01 23.51-3.69-3.69 7.36-7.36c0.3-0.3 0.36-0.77 0.14-1.13l-7.74-13.17 3.93-6.68 11.86 20.18z" fill="#ec8c0d"/>
</svg>
